<mxfile host="app.diagrams.net" modified="2023-07-21T08:27:24.726Z" agent="Mozilla/5.0 (Windows NT 10.0; Win64; x64) AppleWebKit/537.36 (KHTML, like Gecko) Chrome/115.0.0.0 Safari/537.36" version="21.6.5" etag="oDJ7nSl9sTPoQ9z41tsY" type="github">
  <diagram name="페이지-1" id="nDOIxoj_rUfTUz8XrhEi">
    <mxGraphModel>
      <root>
        <mxCell id="0" />
        <mxCell id="1" parent="0" />
      </root>
    </mxGraphModel>
  </diagram>
</mxfile>
